<?xml version="1.0" encoding="UTF-8"?>
<svg version="1.1" xmlns="http://www.w3.org/2000/svg" width="718" height="424">
<path d="M0 0 C0.8430368 -0.00067474 1.68607361 -0.00134949 2.55465698 -0.00204468 C56.63704794 0.06651218 107.18740051 17.79432406 146.5 55.5625 C157.90190111 67.29913582 166.72731519 80.82835012 174.125 95.375 C174.44235107 95.99552246 174.75970215 96.61604492 175.08666992 97.25537109 C177.80734317 102.75391966 179.85525745 108.46281388 181.875 114.25 C182.75422119 114.31469482 183.63344238 114.37938965 184.53930664 114.44604492 C228.76345506 117.80400183 267.29136652 127.97419362 300.875 158.25 C301.60074219 158.90355469 302.32648437 159.55710938 303.07421875 160.23046875 C331.82917121 187.58558579 346.61417321 228.4416764 348.0625 267.4921875 C348.83193235 301.9523375 339.23095001 337.49676396 316.875 364.25 C316.04355469 365.24515625 315.21210937 366.2403125 314.35546875 367.265625 C298.4140782 385.74213741 275.95787058 399.53209093 251.875 404.25 C249.20718371 404.41677555 246.65202294 404.50511926 243.99023438 404.47705078 C243.2477948 404.47734283 242.50535522 404.47763489 241.74041748 404.47793579 C239.31640426 404.47655612 236.8927087 404.46106017 234.46875 404.4453125 C232.77624682 404.44157751 231.08374147 404.43873283 229.39123535 404.43673706 C224.9590853 404.42913888 220.52706849 404.40952358 216.0949707 404.3873291 C210.76512403 404.36316994 205.43523255 404.35407151 200.10534668 404.34242249 C192.02847208 404.32309663 183.95188924 404.28474761 175.875 404.25 C175.875 388.41 175.875 372.57 175.875 356.25 C180.63292969 356.23582031 185.39085937 356.22164063 190.29296875 356.20703125 C193.33275407 356.18694069 196.37239265 356.165392 199.41210938 356.13867188 C204.22198105 356.09652781 209.03148012 356.05937462 213.84155273 356.05444336 C217.72580899 356.05012012 221.60922627 356.02133062 225.49321938 355.97656822 C226.96449177 355.96372021 228.43586523 355.95923973 229.90718651 355.96384621 C247.45659983 356.00593739 261.74030354 349.6960178 274.49609375 337.71875 C294.1277359 317.34568294 298.42607838 291.70530674 298.15234375 264.59375 C297.92515493 255.73225565 296.58222873 247.67042908 293.875 239.25 C293.66069336 238.56695801 293.44638672 237.88391602 293.22558594 237.18017578 C284.7504026 210.87256522 267.40349371 190.14526263 242.9597168 177.17089844 C212.25787232 161.61276251 177.15132569 163.61229148 143.875 167.25 C143.69437012 166.36441406 143.51374023 165.47882813 143.32763672 164.56640625 C136.08951383 129.41372857 125.69808389 97.5900299 94.8046875 76.1484375 C58.45774599 52.5956194 13.64989302 43.56432363 -29.125 51.25 C-29.99543945 51.40597656 -30.86587891 51.56195313 -31.76269531 51.72265625 C-67.45455716 58.35272347 -102.98673267 74.2987498 -124.875 104.4375 C-136.67249432 122.35855762 -144.99801066 145.5120346 -144.125 167.25 C-143.45855469 166.70472656 -142.79210937 166.15945312 -142.10546875 165.59765625 C-133.61197917 158.6484375 -125.11848958 151.69921875 -116.625 144.75 C-115.73039063 144.0178125 -114.83578125 143.285625 -113.9140625 142.53125 C-111.95142767 140.92595764 -109.98795334 139.3217361 -108.0234375 137.71875 C-107.02570313 136.9040625 -106.02796875 136.089375 -105 135.25 C-104.08992188 134.5075 -103.17984375 133.765 -102.2421875 133 C-101.17418385 132.11722208 -100.10477769 131.22977769 -99.125 130.25 C-93.77243939 129.3080181 -88.43373667 128.96197155 -83.01196289 128.67749023 C-82.12646255 128.62857635 -81.24096222 128.57966248 -80.32862854 128.52926636 C-77.41846165 128.36932881 -74.50807655 128.21384625 -71.59765625 128.05859375 C-69.56415193 127.94812916 -67.53065905 127.8374539 -65.49717712 127.72657776 C-61.24146639 127.49520969 -56.98564779 127.26597512 -52.72973633 127.03833008 C-47.28805658 126.74714739 -41.8466424 126.45130805 -36.40529728 126.15394497 C-32.20768504 125.92495864 -28.0099585 125.69812771 -23.81219292 125.47197151 C-21.8063993 125.36371314 -19.80063727 125.25486803 -17.79490852 125.14541435 C-14.98585942 124.99251317 -12.17667287 124.84243933 -9.36743164 124.69311523 C-8.13666901 124.62534126 -8.13666901 124.62534126 -6.88104248 124.55619812 C-1.95462197 124.29794891 2.94171951 124.21007836 7.875 124.25 C6.37275154 127.98892951 4.27334702 129.79093605 1.125 132.25 C-4.20994667 136.48969272 -9.38742447 140.87884676 -14.52832031 145.3515625 C-18.91524438 149.14512219 -18.91524438 149.14512219 -21.125 150.25 C-20.84825439 150.77319824 -20.57150879 151.29639648 -20.28637695 151.83544922 C-18.0792887 156.01077331 -15.87979586 160.18984175 -13.69140625 164.375 C-12.25159162 167.12550261 -10.78991467 169.85074496 -9.27734375 172.5625 C-8.81457031 173.408125 -8.35179687 174.25375 -7.875 175.125 C-7.27945313 176.17300781 -7.27945313 176.17300781 -6.671875 177.2421875 C-5.64868467 180.99875771 -7.9094783 183.84228626 -9.640625 187.1171875 C-13.04497055 193.0211201 -16.47599805 198.26082718 -21.125 203.25 C-19.58701433 207.05440549 -17.30082405 209.09112719 -14.234375 211.76953125 C-4.90047343 220.09612427 3.80578071 229.07454768 12.625 237.9375 C14.40080676 239.71833324 16.17684666 241.49893401 17.953125 243.27929688 C22.26310669 247.60018985 26.57020761 251.92393735 30.875 256.25 C32.9552245 253.60008605 34.61948764 250.99952084 36.10704041 247.97932434 C36.52609146 247.13385544 36.94514252 246.28838654 37.37689209 245.41729736 C38.05259247 244.03861481 38.05259247 244.03861481 38.74194336 242.63208008 C39.2236348 241.65774521 39.70532623 240.68341034 40.20161438 239.67955017 C41.24596034 237.56652861 42.28859769 235.45266192 43.32972527 233.33805275 C44.97674165 229.9953841 46.63040785 226.65608946 48.28627014 223.3177948 C52.99337461 213.82719287 57.6953804 204.33414475 62.37573242 194.83032227 C65.23901063 189.01640206 68.11690732 183.20985008 71.00320625 177.40732384 C72.10197052 175.1917944 73.19557374 172.97369785 74.28397942 170.75306129 C75.80281829 167.65545464 77.33860213 164.56683402 78.87866211 161.47973633 C79.3271048 160.55454193 79.77554749 159.62934753 80.23757935 158.67611694 C80.87038567 157.4206028 80.87038567 157.4206028 81.51597595 156.13972473 C81.87710952 155.40840741 82.23824308 154.67709009 82.61032009 153.92361164 C83.875 152.25 83.875 152.25 85.83298588 151.4744215 C91.08049468 150.89770962 95.91171711 153.38351745 100.03662109 156.41650391 C107.17069321 163.53162762 110.26181907 175.07304408 113.875 184.25 C114.7042548 186.24388865 115.53736644 188.23617924 116.375 190.2265625 C132.39174622 228.91183654 140.09190231 270.71854464 140.125 312.5 C140.12600708 313.38406525 140.12701416 314.26813049 140.12805176 315.1789856 C140.11018108 338.43163177 137.8724798 361.25693054 129.875 383.25 C123.31463016 382.67033198 117.57319446 380.49886441 111.4375 378.1875 C110.41978516 377.81044922 109.40207031 377.43339844 108.35351562 377.04492188 C105.85829819 376.11946564 103.36563881 375.18769349 100.875 374.25 C101.49785389 369.27359004 102.51280297 364.53269848 103.8125 359.6875 C113.57493488 321.78498942 109.08328413 280.38939855 100.09423828 242.77929688 C99.30763738 239.46178976 98.875 236.6889449 98.875 233.25 C98.215 233.25 97.555 233.25 96.875 233.25 C96.60945313 233.94335449 96.34390625 234.63670898 96.0703125 235.35107422 C94.76230447 238.52331427 93.28333635 241.56301965 91.75 244.6328125 C91.4473674 245.23944229 91.1447348 245.84607208 90.83293152 246.47108459 C89.84935194 248.44026639 88.86244686 250.40775491 87.875 252.375 C87.53497955 253.05382233 87.19495911 253.73264465 86.84463501 254.43203735 C82.62730044 262.84898816 78.36373478 271.23565875 73.93994141 279.54638672 C68.67449783 289.45894262 63.58484925 299.46330195 58.46948242 309.45385742 C53.69500449 318.76868543 48.83136869 328.03064934 43.875 337.25 C37.2843799 331.82700031 31.30338588 325.82412452 25.28125 319.7890625 C24.16473703 318.67322469 23.04807579 317.55753524 21.93127441 316.44198608 C19.59985364 314.11203291 17.27023354 311.78029832 14.94189453 309.44726562 C11.97668139 306.47636246 9.00700932 303.50996355 6.03595734 300.54490089 C3.73141468 298.24399494 1.42928762 295.94068389 -0.87214661 293.63666916 C-1.96530545 292.54284928 -3.05919078 291.44975491 -4.15385437 290.35744095 C-9.49368904 285.02655589 -14.74854003 279.67630028 -19.65908813 273.94052124 C-21.73048937 271.55173657 -23.9411876 269.3214999 -26.18359375 267.09375 C-27.06337891 266.2171875 -27.94316406 265.340625 -28.84960938 264.4375 C-29.74486328 263.550625 -30.64011719 262.66375 -31.5625 261.75 C-32.94598633 260.37328125 -32.94598633 260.37328125 -34.35742188 258.96875 C-36.61099899 256.72684945 -38.86689075 254.487334 -41.125 252.25 C-41.05571289 253.20672607 -40.98642578 254.16345215 -40.91503906 255.14916992 C-40.13636677 266.60441764 -39.906894 278.03438852 -39.88476562 289.5144043 C-39.87504552 292.54829189 -39.84388426 295.58150391 -39.8125 298.61523438 C-39.64633905 329.32542219 -46.36291771 358.68133857 -62.125 385.25 C-65.9390451 384.67126766 -68.64202101 383.58372981 -71.93359375 381.58984375 C-72.83964355 381.04674561 -73.74569336 380.50364746 -74.67919922 379.9440918 C-75.63068848 379.3644165 -76.58217773 378.78474121 -77.5625 378.1875 C-79.53207778 377.00441836 -81.50213042 375.8221269 -83.47265625 374.640625 C-84.43316895 374.06248047 -85.39368164 373.48433594 -86.38330078 372.88867188 C-90.0618492 370.6900595 -93.77275771 368.55223683 -97.5 366.4375 C-98.60085938 365.81230469 -99.70171875 365.18710937 -100.8359375 364.54296875 C-101.59132813 364.11628906 -102.34671875 363.68960937 -103.125 363.25 C-102.5748296 359.48567623 -101.3494046 356.29709183 -99.80151367 352.83398438 C-96.59719624 345.62659213 -94.15198067 338.42066281 -92.3125 330.75 C-92.11817383 329.95787109 -91.92384766 329.16574219 -91.72363281 328.34960938 C-88.5632046 314.45261221 -87.74995594 300.3889096 -87.8125 286.1875 C-87.81266113 285.4291687 -87.81282227 284.6708374 -87.81298828 283.88952637 C-87.83679317 267.56702266 -89.23913869 251.45369488 -91.125 235.25 C-91.88538574 235.19956543 -92.64577148 235.14913086 -93.42919922 235.09716797 C-99.84777337 234.62487482 -105.99123781 233.86578337 -112.25 232.375 C-113.01771729 232.19428955 -113.78543457 232.0135791 -114.57641602 231.82739258 C-116.08248915 231.46881889 -117.58751997 231.10582983 -119.09130859 230.73779297 C-120.85172788 230.31554594 -122.6224983 229.93690298 -124.39453125 229.56640625 C-125.27496094 229.35886719 -126.15539062 229.15132812 -127.0625 228.9375 C-127.79339844 228.77636719 -128.52429688 228.61523438 -129.27734375 228.44921875 C-134.80920224 224.8587736 -135.51782828 214.89455449 -136.8125 208.9375 C-137.03744141 207.93654297 -137.26238281 206.93558594 -137.49414062 205.90429688 C-139.125 198.56295118 -139.125 198.56295118 -139.125 196.25 C-135.165 195.92 -131.205 195.59 -127.125 195.25 C-128.36894531 195.3221875 -129.61289063 195.394375 -130.89453125 195.46875 C-132.57551193 195.56265954 -134.25650203 195.65640041 -135.9375 195.75 C-137.15856445 195.82154297 -137.15856445 195.82154297 -138.40429688 195.89453125 C-144.64947433 196.23740374 -150.8711722 196.30367453 -157.125 196.25 C-157.03059509 201.60306535 -156.92432174 206.9557239 -156.80761719 212.30834961 C-156.76961906 214.12469236 -156.73471857 215.94110292 -156.703125 217.75756836 C-156.48847915 230.92653359 -156.48847915 230.92653359 -154.55712891 243.9309082 C-153.84270807 247.76496671 -153.90938618 251.55156103 -154 255.4375 C-154.00902344 256.19869141 -154.01804688 256.95988281 -154.02734375 257.74414062 C-154.05043092 259.57957055 -154.08627433 261.41483343 -154.125 263.25 C-158.085 263.25 -162.045 263.25 -166.125 263.25 C-166.20822159 261.02151073 -166.26515891 258.79204011 -166.3125 256.5625 C-166.34730469 255.32113281 -166.38210937 254.07976562 -166.41796875 252.80078125 C-166.33996925 249.16451863 -165.57547368 246.00474871 -164.625 242.5 C-162.39282596 233.38182324 -162.80193852 224.25884386 -162.9375 214.9375 C-162.95258401 213.1178497 -162.96626579 211.29818721 -162.97851562 209.47851562 C-163.01120407 205.06870343 -163.06277765 200.65949029 -163.125 196.25 C-164.115 196.58 -165.105 196.91 -166.125 197.25 C-168.35318441 197.31937062 -170.58334524 197.33457084 -172.8125 197.3125 C-173.99199219 197.30347656 -175.17148438 197.29445312 -176.38671875 197.28515625 C-177.29035156 197.27355469 -178.19398438 197.26195312 -179.125 197.25 C-175.39839554 193.42551099 -171.50382502 189.89641877 -167.4375 186.4375 C-166.52037231 185.65463623 -166.52037231 185.65463623 -165.5847168 184.85595703 C-153.05506903 174.20337935 -153.05506903 174.20337935 -147.125 170.25 C-150.09683248 167.27816752 -159.19369866 168.06744603 -163.5 167.6875 C-164.64796555 167.58569931 -164.64796555 167.58569931 -165.81912231 167.48184204 C-209.59227004 163.67495955 -256.78718769 166.15222365 -292.03125 195.52734375 C-299.60846673 202.07484792 -305.10227504 209.62374754 -310.125 218.25 C-310.80369141 219.40048828 -310.80369141 219.40048828 -311.49609375 220.57421875 C-322.69185643 241.11722255 -324.18304965 266.92370467 -318.125 289.25 C-310.63753312 313.55112421 -295.9501117 335.04415659 -273.18945312 347.29150391 C-263.9206127 352.00111383 -255.33273394 355.53817555 -244.80297852 355.56884766 C-244.00216354 355.57889328 -243.20134857 355.5889389 -242.37626648 355.59928894 C-239.75215313 355.6299657 -237.12814106 355.64711258 -234.50390625 355.6640625 C-232.67544187 355.68278665 -230.84698602 355.70236099 -229.01853943 355.7227478 C-224.22316529 355.77394329 -219.42776318 355.81363617 -214.63226318 355.85089111 C-208.86931417 355.89807259 -203.10650259 355.95961627 -197.34366608 356.01873779 C-188.60416658 356.10679656 -179.86469139 356.17667073 -171.125 356.25 C-171.125 372.09 -171.125 387.93 -171.125 404.25 C-192.90408347 404.45054405 -192.90408347 404.45054405 -202.28710938 404.49414062 C-208.65508214 404.52387001 -215.02269076 404.55879109 -221.39038086 404.62719727 C-226.53219619 404.6820798 -231.6736203 404.71153744 -236.81570625 404.72438622 C-238.76385203 404.73352628 -240.71197977 404.7513702 -242.65995598 404.77865028 C-258.81832168 404.99565072 -272.55564441 402.30311179 -287.3125 395.5 C-288.42238281 394.99629883 -288.42238281 394.99629883 -289.5546875 394.48242188 C-300.75426862 389.24888268 -310.74399601 382.28200011 -320.125 374.25 C-320.95644531 373.54101562 -321.78789062 372.83203125 -322.64453125 372.1015625 C-345.49837294 352.09128637 -359.83584976 325.53152211 -367.125 296.25 C-367.30144043 295.58742188 -367.47788086 294.92484375 -367.65966797 294.2421875 C-372.81673979 274.3703389 -372.25095588 249.10370228 -367.125 229.25 C-366.86759033 228.24791504 -366.86759033 228.24791504 -366.60498047 227.22558594 C-356.80170391 190.51805351 -333.23294749 160.31643565 -300.42724609 141.23657227 C-291.94163179 136.44845416 -283.33353314 132.46338261 -274.125 129.25 C-273.4129541 128.99766602 -272.7009082 128.74533203 -271.96728516 128.48535156 C-243.66530038 118.59280212 -214.82299982 116.97729795 -185.125 116.25 C-184.9297876 115.72792969 -184.7345752 115.20585938 -184.53344727 114.66796875 C-175.74630577 91.39185256 -164.21283156 73.21481203 -147.125 55.25 C-146.23748047 54.28320312 -146.23748047 54.28320312 -145.33203125 53.296875 C-115.77962268 22.06618149 -69.68114543 6.54879816 -28.125 1.25 C-27.41907715 1.15428711 -26.7131543 1.05857422 -25.98583984 0.95996094 C-17.36145077 -0.06943138 -8.67307909 0.00624229 0 0 Z M-27.125 154.25 C-27.455 154.91 -27.785 155.57 -28.125 156.25 C-27.135 155.92 -26.145 155.59 -25.125 155.25 C-25.785 154.92 -26.445 154.59 -27.125 154.25 Z M-107.125 193.25 C-107.125 193.58 -107.125 193.91 -107.125 194.25 C-104.485 194.25 -101.845 194.25 -99.125 194.25 C-99.125 193.92 -99.125 193.59 -99.125 193.25 C-101.765 193.25 -104.405 193.25 -107.125 193.25 Z " fill="#FDFDFD" transform="translate(370.125,-0.25)"/>
<path d="M0 0 C-1.50224846 3.73892951 -3.60165298 5.54093605 -6.75 8 C-12.08494667 12.23969272 -17.26242447 16.62884676 -22.40332031 21.1015625 C-26.79024438 24.89512219 -26.79024438 24.89512219 -29 26 C-28.72325439 26.52319824 -28.44650879 27.04639648 -28.16137695 27.58544922 C-25.9542887 31.76077331 -23.75479586 35.93984175 -21.56640625 40.125 C-20.12659162 42.87550261 -18.66491467 45.60074496 -17.15234375 48.3125 C-16.68957031 49.158125 -16.22679687 50.00375 -15.75 50.875 C-15.35296875 51.57367188 -14.9559375 52.27234375 -14.546875 52.9921875 C-13.52368467 56.74875771 -15.7844783 59.59228626 -17.515625 62.8671875 C-20.91997055 68.7711201 -24.35099805 74.01082718 -29 79 C-27.46201433 82.80440549 -25.17582405 84.84112719 -22.109375 87.51953125 C-12.77547343 95.84612427 -4.06921929 104.82454768 4.75 113.6875 C6.52580676 115.46833324 8.30184666 117.24893401 10.078125 119.02929688 C14.38810669 123.35018985 18.69520761 127.67393735 23 132 C25.0802245 129.35008605 26.74448764 126.74952084 28.23204041 123.72932434 C28.65109146 122.88385544 29.07014252 122.03838654 29.50189209 121.16729736 C29.95235901 120.24817566 30.40282593 119.32905396 30.86694336 118.38208008 C31.3486348 117.40774521 31.83032623 116.43341034 32.32661438 115.42955017 C33.37096034 113.31652861 34.41359769 111.20266192 35.45472527 109.08805275 C37.10174165 105.7453841 38.75540785 102.40608946 40.41127014 99.0677948 C45.11837461 89.57719287 49.8203804 80.08414475 54.50073242 70.58032227 C57.36401063 64.76640206 60.24190732 58.95985008 63.12820625 53.15732384 C64.22697052 50.9417944 65.32057374 48.72369785 66.40897942 46.50306129 C67.92781829 43.40545464 69.46360213 40.31683402 71.00366211 37.22973633 C71.67632614 35.84194473 71.67632614 35.84194473 72.36257935 34.42611694 C72.99538567 33.1706028 72.99538567 33.1706028 73.64097595 31.88972473 C74.1826763 30.79274875 74.1826763 30.79274875 74.73532009 29.67361164 C76 28 76 28 77.95798588 27.2244215 C83.20549468 26.64770962 88.03671711 29.13351745 92.16162109 32.16650391 C99.29569321 39.28162762 102.38681907 50.82304408 106 60 C106.8292548 61.99388865 107.66236644 63.98617924 108.5 65.9765625 C124.51674622 104.66183654 132.21690231 146.46854464 132.25 188.25 C132.25100708 189.13406525 132.25201416 190.01813049 132.25305176 190.9289856 C132.23518108 214.18163177 129.9974798 237.00693054 122 259 C115.43963016 258.42033198 109.69819446 256.24886441 103.5625 253.9375 C102.03592773 253.37192383 102.03592773 253.37192383 100.47851562 252.79492188 C97.98329819 251.86946564 95.49063881 250.93769349 93 250 C93.62285389 245.02359004 94.63780297 240.28269848 95.9375 235.4375 C105.69993488 197.53498942 101.20828413 156.13939855 92.21923828 118.52929688 C91.43263738 115.21178976 91 112.4389449 91 109 C90.34 109 89.68 109 89 109 C88.73445313 109.69335449 88.46890625 110.38670898 88.1953125 111.10107422 C86.88730447 114.27331427 85.40833635 117.31301965 83.875 120.3828125 C83.5723674 120.98944229 83.2697348 121.59607208 82.95793152 122.22108459 C81.97435194 124.19026639 80.98744686 126.15775491 80 128.125 C79.65997955 128.80382233 79.31995911 129.48264465 78.96963501 130.18203735 C74.75230044 138.59898816 70.48873478 146.98565875 66.06494141 155.29638672 C60.79949783 165.20894262 55.70984925 175.21330195 50.59448242 185.20385742 C45.82000449 194.51868543 40.95636869 203.78064934 36 213 C29.4093799 207.57700031 23.42838588 201.57412452 17.40625 195.5390625 C16.28973703 194.42322469 15.17307579 193.30753524 14.05627441 192.19198608 C11.72485364 189.86203291 9.39523354 187.53029832 7.06689453 185.19726562 C4.10168139 182.22636246 1.13200932 179.25996355 -1.83904266 176.29490089 C-4.14358532 173.99399494 -6.44571238 171.69068389 -8.74714661 169.38666916 C-9.84030545 168.29284928 -10.93419078 167.19975491 -12.02885437 166.10744095 C-17.36868904 160.77655589 -22.62354003 155.42630028 -27.53408813 149.69052124 C-29.60548937 147.30173657 -31.8161876 145.0714999 -34.05859375 142.84375 C-35.37827148 141.52890625 -35.37827148 141.52890625 -36.72460938 140.1875 C-37.61986328 139.300625 -38.51511719 138.41375 -39.4375 137.5 C-40.35982422 136.5821875 -41.28214844 135.664375 -42.23242188 134.71875 C-44.48599899 132.47684945 -46.74189075 130.237334 -49 128 C-48.93071289 128.95672607 -48.86142578 129.91345215 -48.79003906 130.89916992 C-48.01136677 142.35441764 -47.781894 153.78438852 -47.75976562 165.2644043 C-47.75004552 168.29829189 -47.71888426 171.33150391 -47.6875 174.36523438 C-47.52133905 205.07542219 -54.23791771 234.43133857 -70 261 C-73.8140451 260.42126766 -76.51702101 259.33372981 -79.80859375 257.33984375 C-81.16766846 256.52519653 -81.16766846 256.52519653 -82.55419922 255.6940918 C-83.50568848 255.1144165 -84.45717773 254.53474121 -85.4375 253.9375 C-87.40707778 252.75441836 -89.37713042 251.5721269 -91.34765625 250.390625 C-92.30816895 249.81248047 -93.26868164 249.23433594 -94.25830078 248.63867188 C-97.9368492 246.4400595 -101.64775771 244.30223683 -105.375 242.1875 C-106.47585938 241.56230469 -107.57671875 240.93710937 -108.7109375 240.29296875 C-109.46632813 239.86628906 -110.22171875 239.43960938 -111 239 C-110.4498296 235.23567623 -109.2244046 232.04709183 -107.67651367 228.58398438 C-104.47219624 221.37659213 -102.02698067 214.17066281 -100.1875 206.5 C-99.99317383 205.70787109 -99.79884766 204.91574219 -99.59863281 204.09960938 C-96.4382046 190.20261221 -95.62495594 176.1389096 -95.6875 161.9375 C-95.68766113 161.1791687 -95.68782227 160.4208374 -95.68798828 159.63952637 C-95.71179317 143.31702266 -97.11413869 127.20369488 -99 111 C-99.76038574 110.94956543 -100.52077148 110.89913086 -101.30419922 110.84716797 C-107.72277337 110.37487482 -113.86623781 109.61578337 -120.125 108.125 C-120.89271729 107.94428955 -121.66043457 107.7635791 -122.45141602 107.57739258 C-123.95748915 107.21881889 -125.46251997 106.85582983 -126.96630859 106.48779297 C-128.72672788 106.06554594 -130.4974983 105.68690298 -132.26953125 105.31640625 C-133.14996094 105.10886719 -134.03039062 104.90132813 -134.9375 104.6875 C-135.66839844 104.52636719 -136.39929688 104.36523438 -137.15234375 104.19921875 C-142.68420224 100.6087736 -143.39282828 90.64455449 -144.6875 84.6875 C-144.91244141 83.68654297 -145.13738281 82.68558594 -145.36914062 81.65429688 C-147 74.31295118 -147 74.31295118 -147 72 C-141.06 71.505 -141.06 71.505 -135 71 C-136.24394531 71.0721875 -137.48789063 71.144375 -138.76953125 71.21875 C-140.45051193 71.31265954 -142.13150203 71.40640041 -143.8125 71.5 C-145.03356445 71.57154297 -145.03356445 71.57154297 -146.27929688 71.64453125 C-152.52447433 71.98740374 -158.7461722 72.05367453 -165 72 C-164.90559509 77.35306535 -164.79932174 82.7057239 -164.68261719 88.05834961 C-164.64461906 89.87469236 -164.60971857 91.69110292 -164.578125 93.50756836 C-164.36347915 106.67653359 -164.36347915 106.67653359 -162.43212891 119.6809082 C-161.71770807 123.51496671 -161.78438618 127.30156103 -161.875 131.1875 C-161.88402344 131.94869141 -161.89304688 132.70988281 -161.90234375 133.49414062 C-161.92543092 135.32957055 -161.96127433 137.16483343 -162 139 C-165.96 139 -169.92 139 -174 139 C-174.08322159 136.77151073 -174.14015891 134.54204011 -174.1875 132.3125 C-174.23970703 130.45044922 -174.23970703 130.45044922 -174.29296875 128.55078125 C-174.21496925 124.91451863 -173.45047368 121.75474871 -172.5 118.25 C-170.26782596 109.13182324 -170.67693852 100.00884386 -170.8125 90.6875 C-170.82758401 88.8678497 -170.84126579 87.04818721 -170.85351562 85.22851562 C-170.88620407 80.81870343 -170.93777765 76.40949029 -171 72 C-172.485 72.495 -172.485 72.495 -174 73 C-176.22818441 73.06937062 -178.45834524 73.08457084 -180.6875 73.0625 C-181.86699219 73.05347656 -183.04648438 73.04445313 -184.26171875 73.03515625 C-185.61716797 73.01775391 -185.61716797 73.01775391 -187 73 C-183.27338172 69.17549681 -179.37870814 65.64656965 -175.3125 62.1875 C-174.39210937 61.40137329 -174.39210937 61.40137329 -173.453125 60.59936523 C-169.0648917 56.86673308 -164.60854826 53.23020105 -160.08984375 49.65625 C-157.35180087 47.48628704 -154.6793582 45.24191196 -152 43 C-148.33833126 39.99388808 -144.66863542 36.9976033 -141 34 C-139.16655146 32.50014082 -137.33321648 31.00014281 -135.5 29.5 C-131.83333333 26.5 -128.16666667 23.5 -124.5 20.5 C-123.60539062 19.7678125 -122.71078125 19.035625 -121.7890625 18.28125 C-119.82642767 16.67595764 -117.86295334 15.0717361 -115.8984375 13.46875 C-114.90070313 12.6540625 -113.90296875 11.839375 -112.875 11 C-111.96492188 10.2575 -111.05484375 9.515 -110.1171875 8.75 C-109.04918385 7.86722208 -107.97977769 6.97977769 -107 6 C-101.64743939 5.0580181 -96.30873667 4.71197155 -90.88696289 4.42749023 C-90.00146255 4.37857635 -89.11596222 4.32966248 -88.20362854 4.27926636 C-85.29346165 4.11932881 -82.38307655 3.96384625 -79.47265625 3.80859375 C-77.43915193 3.69812916 -75.40565905 3.5874539 -73.37217712 3.47657776 C-69.11646639 3.24520969 -64.86064779 3.01597512 -60.60473633 2.78833008 C-55.16305658 2.49714739 -49.7216424 2.20130805 -44.28029728 1.90394497 C-40.08268504 1.67495864 -35.8849585 1.44812771 -31.68719292 1.22197151 C-29.6813993 1.11371314 -27.67563727 1.00486803 -25.66990852 0.89541435 C-22.86085942 0.74251317 -20.05167287 0.59243933 -17.24243164 0.44311523 C-16.42192322 0.39793259 -15.60141479 0.35274994 -14.75604248 0.30619812 C-9.82962197 0.04794891 -4.93328049 -0.03992164 0 0 Z M-35 30 C-35.33 30.66 -35.66 31.32 -36 32 C-35.01 31.67 -34.02 31.34 -33 31 C-33.66 30.67 -34.32 30.34 -35 30 Z M-115 69 C-115 69.33 -115 69.66 -115 70 C-112.36 70 -109.72 70 -107 70 C-107 69.67 -107 69.34 -107 69 C-109.64 69 -112.28 69 -115 69 Z " fill="#C4C5C5" transform="translate(378,124)"/>
<path d="M0 0 C2.93000647 2.52363154 4.23413522 5.25976866 5.8203125 8.7578125 C6.61659058 10.51218628 6.61659058 10.51218628 7.42895508 12.30200195 C7.99561773 13.57575073 8.56093237 14.85009993 9.125 16.125 C9.41345795 16.77447601 9.70191589 17.42395203 9.99911499 18.09310913 C23.23375942 47.99085603 32.35277883 78.84061792 36.64160156 111.29052734 C36.86542991 112.98265747 37.0999658 114.67344647 37.35058594 116.36181641 C42.51545371 151.20551637 41.09137025 190.74873181 29 224 C22.43963016 223.42033198 16.69819446 221.24886441 10.5625 218.9375 C9.03592773 218.37192383 9.03592773 218.37192383 7.47851562 217.79492188 C4.98329819 216.86946564 2.49063881 215.93769349 0 215 C0.62285389 210.02359004 1.63780297 205.28269848 2.9375 200.4375 C12.69993488 162.53498942 8.20828413 121.13939855 -0.78076172 83.52929688 C-1.56736262 80.21178976 -2 77.4389449 -2 74 C-2.66 74 -3.32 74 -4 74 C-4.26554688 74.69335449 -4.53109375 75.38670898 -4.8046875 76.10107422 C-6.11269553 79.27331427 -7.59166365 82.31301965 -9.125 85.3828125 C-9.5789489 86.29275719 -9.5789489 86.29275719 -10.04206848 87.22108459 C-11.02564806 89.19026639 -12.01255314 91.15775491 -13 93.125 C-13.51003067 94.14323349 -13.51003067 94.14323349 -14.03036499 95.18203735 C-18.24769956 103.59898816 -22.51126522 111.98565875 -26.93505859 120.29638672 C-32.20050217 130.20894262 -37.29015075 140.21330195 -42.40551758 150.20385742 C-47.17999551 159.51868543 -52.04363131 168.78064934 -57 178 C-63.5906201 172.57700031 -69.57161412 166.57412452 -75.59375 160.5390625 C-76.71026297 159.42322469 -77.82692421 158.30753524 -78.94372559 157.19198608 C-81.27514636 154.86203291 -83.60476646 152.53029832 -85.93310547 150.19726562 C-88.89831861 147.22636246 -91.86799068 144.25996355 -94.83904266 141.29490089 C-97.14358532 138.99399494 -99.44571238 136.69068389 -101.74714661 134.38666916 C-102.84030545 133.29284928 -103.93419078 132.19975491 -105.02885437 131.10744095 C-110.36868904 125.77655589 -115.62354003 120.42630028 -120.53408813 114.69052124 C-122.60548937 112.30173657 -124.8161876 110.0714999 -127.05859375 107.84375 C-127.93837891 106.9671875 -128.81816406 106.090625 -129.72460938 105.1875 C-130.61986328 104.300625 -131.51511719 103.41375 -132.4375 102.5 C-133.35982422 101.5821875 -134.28214844 100.664375 -135.23242188 99.71875 C-137.48599899 97.47684945 -139.74189075 95.237334 -142 93 C-141.93071289 93.95672607 -141.86142578 94.91345215 -141.79003906 95.89916992 C-141.01136677 107.35441764 -140.781894 118.78438852 -140.75976562 130.2644043 C-140.75004552 133.29829189 -140.71888426 136.33150391 -140.6875 139.36523438 C-140.52133905 170.07542219 -147.23791771 199.43133857 -163 226 C-167.01739044 225.41432842 -169.83351438 224.14706444 -173.30078125 222.05859375 C-174.27724609 221.47529297 -175.25371094 220.89199219 -176.25976562 220.29101562 C-177.26716797 219.67935547 -178.27457031 219.06769531 -179.3125 218.4375 C-180.33923828 217.82197266 -181.36597656 217.20644531 -182.42382812 216.57226562 C-184.95320506 215.05463946 -187.47833212 213.53038935 -190 212 C-189.41992188 210.86046875 -188.83984375 209.7209375 -188.2421875 208.546875 C-184.07287638 200.17426868 -180.32599327 191.84279487 -177.625 182.875 C-177.39925293 182.13862305 -177.17350586 181.40224609 -176.94091797 180.64355469 C-172.59280856 165.45937038 -171.46514876 150.65355457 -171.5625 134.9375 C-171.56354736 133.98842773 -171.56459473 133.03935547 -171.56567383 132.06152344 C-171.6034122 115.38395712 -172.98009723 99.15039677 -175.6328125 82.69335938 C-176 80 -176 80 -176 76 C-174.86304688 75.97164063 -173.72609375 75.94328125 -172.5546875 75.9140625 C-160.25963949 75.27884956 -153.21137089 72.0062563 -144 64 C-143.12859375 63.26910156 -142.2571875 62.53820312 -141.359375 61.78515625 C-139.53468673 60.22523918 -137.75064744 58.64191158 -136 57 C-132.56069417 58.48126357 -130.33045662 60.42427446 -127.69921875 63.0703125 C-126.88646484 63.885 -126.07371094 64.6996875 -125.23632812 65.5390625 C-124.39521484 66.39242187 -123.55410156 67.24578125 -122.6875 68.125 C-121.44323242 69.37023437 -121.44323242 69.37023437 -120.17382812 70.640625 C-116.59795841 74.24189552 -113.10543256 77.86047806 -109.79589844 81.70849609 C-105.59968669 86.53269819 -101.09973936 91.02581055 -96.56640625 95.53125 C-95.68846909 96.40777222 -94.81053192 97.28429443 -93.9059906 98.18737793 C-91.12718504 100.96062796 -88.34490603 103.73036282 -85.5625 106.5 C-83.66680135 108.39010805 -81.77190217 110.28101518 -79.87695312 112.171875 C-75.25394811 116.78391004 -70.62809343 121.39307141 -66 126 C-64.08123797 123.53064909 -62.43065606 121.1175523 -61.01391602 118.33081055 C-60.65199158 117.62364395 -60.29006714 116.91647736 -59.91717529 116.18788147 C-59.53329651 115.42849777 -59.14941772 114.66911407 -58.75390625 113.88671875 C-58.14340424 112.69066261 -58.14340424 112.69066261 -57.52056885 111.47044373 C-56.64990511 109.76378275 -55.78092743 108.05626076 -54.91348267 106.34796143 C-53.09455017 102.76597635 -51.26753977 99.18813554 -49.4407196 95.61016846 C-48.5343357 93.8349353 -47.62833824 92.05950478 -46.72273254 90.28387451 C-43.45465259 83.8787428 -40.15268235 77.49287861 -36.8125 71.125 C-32.04232895 62.02093847 -27.32742378 52.88917169 -22.625 43.75 C-15.11320661 29.15108815 -7.56790783 14.56990574 0 0 Z " fill="#FDFDFD" transform="translate(471,159)"/>
<path d="M0 0 C-2.67350526 3.54208647 -5.39471217 6.31740975 -8.875 9.0625 C-13.32479422 12.62826844 -17.68476461 16.27266974 -22 20 C-26.98886139 24.30034727 -32.0422328 28.50487134 -37.15625 32.65625 C-41.08555565 35.89468872 -44.93626602 39.22145186 -48.79321289 42.54541016 C-53.27029495 46.39558978 -57.8096581 50.15519117 -62.40234375 53.8671875 C-64.87733866 55.80583406 -64.87733866 55.80583406 -66.38626099 57.47601318 C-71.54338322 62.6671755 -76.24209 63.01179201 -83.33984375 63.2734375 C-84.46575424 63.33711517 -85.59166473 63.40079285 -86.75169373 63.46640015 C-90.50025367 63.67123775 -94.24946561 63.83560043 -98 64 C-100.68911101 64.13869246 -103.37803235 64.27956412 -106.06689453 64.42285156 C-113.84034269 64.82999683 -121.61576847 65.18363419 -129.39221191 65.52801514 C-132.32264965 65.65896923 -135.25286616 65.79455127 -138.18309116 65.93017006 C-141.0442111 66.06222836 -143.90542546 66.19213487 -146.76667595 66.32133102 C-148.75680591 66.41136613 -150.74688081 66.50261562 -152.73695374 66.59390259 C-159.16570884 66.87713719 -165.56504258 67.06521476 -172 67 C-168.3435369 63.25501917 -164.5428616 59.77199406 -160.5625 56.375 C-159.95341797 55.85357422 -159.34433594 55.33214844 -158.71679688 54.79492188 C-153.9936835 50.78051822 -149.15168434 46.94157583 -144.25219727 43.14599609 C-140.06087457 39.88147138 -136.01113856 36.48281223 -132 33 C-125.86423885 27.67331254 -119.56651097 22.6061772 -113.06680298 17.72784424 C-110.8457302 15.93865418 -110.8457302 15.93865418 -108.50814819 13.37127686 C-99.11995469 3.7928283 -90.27833862 3.18740797 -77.32421875 2.83203125 C-75.34392985 2.74010602 -73.36384695 2.64364292 -71.38398743 2.54289246 C-66.20817388 2.29178537 -61.03193219 2.10269214 -55.85308838 1.92687988 C-50.58715561 1.7366098 -45.32416024 1.48533442 -40.06054688 1.24023438 C-32.36264892 0.89042136 -24.664429 0.56350828 -16.96362305 0.28442383 C-16.17124237 0.25495163 -15.37886169 0.22547943 -14.56246948 0.19511414 C-9.70517266 0.0254842 -4.86027056 -0.02511751 0 0 Z " fill="#FDFDFD" transform="translate(371,127)"/>
<path d="M0 0 C3.39819194 4.3425811 5.80182764 9.04607818 8.3125 13.9375 C9.03276367 15.27844727 9.03276367 15.27844727 9.76757812 16.64648438 C10.21166016 17.51466797 10.65574219 18.38285156 11.11328125 19.27734375 C11.52360596 20.06359131 11.93393066 20.84983887 12.35668945 21.65991211 C13.43228994 25.57248543 11.48763448 28.13279409 9.58984375 31.5078125 C-1.15296626 48.52361086 -14.81487276 62.20830392 -31 74 C-31.61746094 74.56460938 -32.23492187 75.12921875 -32.87109375 75.7109375 C-44.95532732 83.02799636 -71.66434224 78.8217872 -85 76 C-86.33780518 75.72542969 -86.33780518 75.72542969 -87.70263672 75.4453125 C-90.73129122 74.80237454 -93.73968269 74.09867824 -96.75 73.375 C-98.19983276 73.05861572 -98.19983276 73.05861572 -99.67895508 72.73583984 C-106.27915576 71.02160882 -106.27915576 71.02160882 -108.2434082 68.23779297 C-109.05087195 66.16273812 -109.56467145 64.18177029 -110 62 C-110.31324219 60.87335938 -110.62648437 59.74671875 -110.94921875 58.5859375 C-111.19285156 57.52632812 -111.43648437 56.46671875 -111.6875 55.375 C-111.93886719 54.31023437 -112.19023437 53.24546875 -112.44921875 52.1484375 C-112.99580474 49.02398143 -113.03884788 46.16348484 -113 43 C-112.36487991 42.96463638 -111.72975983 42.92927277 -111.07539368 42.89283752 C-104.40685955 42.52126148 -97.73843506 42.14776177 -91.07006836 41.77319336 C-88.58832461 41.63403769 -86.10655419 41.49535664 -83.62475586 41.35717773 C-80.03752476 41.15736615 -76.45039611 40.9557927 -72.86328125 40.75390625 C-71.77106766 40.6934462 -70.67885406 40.63298615 -69.55354309 40.57069397 C-67.43673474 40.45091447 -65.32019462 40.32628103 -63.20397949 40.19644165 C-60.95210025 40.05837495 -58.69946894 39.93230636 -56.44641113 39.81503296 C-55.29016235 39.74515167 -54.13391357 39.67527039 -52.94262695 39.60327148 C-51.89790726 39.54517807 -50.85318756 39.48708466 -49.77680969 39.42723083 C-45.36272832 38.74809475 -42.91607825 36.61702214 -39.875 33.5 C-38.6977062 32.39597021 -37.51930934 31.29311556 -36.33984375 30.19140625 C-35.77507324 29.64629395 -35.21030273 29.10118164 -34.62841797 28.53955078 C-32.33577357 26.37202221 -29.90064013 24.40729712 -27.4375 22.4375 C-23.36938297 19.13627396 -19.36243576 15.77251692 -15.375 12.375 C-10.35838627 8.10450002 -5.25377967 3.97766781 0 0 Z " fill="#FDFDFD" transform="translate(348,155)"/>
<path d="M0 0 C2.31305485 2.31305485 2.94362503 3.91917664 3.11352539 7.17651367 C3.10567017 8.40978394 3.10567017 8.40978394 3.09765625 9.66796875 C3.09282227 11.00698242 3.09282227 11.00698242 3.08789062 12.37304688 C3.07951172 13.30181641 3.07113281 14.23058594 3.0625 15.1875 C3.05798828 16.12787109 3.05347656 17.06824219 3.04882812 18.03710938 C3.03704626 20.35813712 3.02059558 22.67903644 3 25 C0.69 25 -1.62 25 -4 25 C-3.68671942 16.19573542 -3.38954192 8.25279772 0 0 Z " fill="#FAFAFA" transform="translate(210,235)"/>
<path d="M0 0 C0.66 0.66 1.32 1.32 2 2 C-2.95491606 6.69884805 -8.12244881 10.98875412 -13.6875 14.9375 C-14.74324219 15.68902344 -15.79898437 16.44054687 -16.88671875 17.21484375 C-21.95219172 20.11938722 -26.6402374 20.12621958 -32.375 20.0625 C-33.96441406 20.04896484 -33.96441406 20.04896484 -35.5859375 20.03515625 C-36.38257813 20.02355469 -37.17921875 20.01195312 -38 20 C-38 19.34 -38 18.68 -38 18 C-36.27716797 17.95746094 -36.27716797 17.95746094 -34.51953125 17.9140625 C-22.35361949 17.2886198 -15.80364292 14.24868549 -7 6 C-5.56716604 4.78613735 -4.1306072 3.5766311 -2.6875 2.375 C-1.800625 1.59125 -0.91375 0.8075 0 0 Z " fill="#CCCDCD" transform="translate(333,215)"/>
</svg>
